{"title":"Escape Plan 2013 BRRip 720p x264 AAC - PRiSTiNE [P2PDL]","uid":9518288,"size":744092002,"categoryP":"video","categoryS":"movies","magnet":"?xt=urn:btih:359a4e57b3e8d798c8375a05bed94c4516ded5e2&amp;dn=Escape+Plan+2013+BRRip+720p+x264+AAC+-+PRiSTiNE+%5BP2PDL%5D&amp;tr=udp%3A%2F%2Ftracker.openbittorrent.com%3A80&amp;tr=udp%3A%2F%2Fopen.demonii.com%3A1337&amp;tr=udp%3A%2F%2Ftracker.coppersurfer.tk%3A6969&amp;tr=udp%3A%2F%2Fexodus.desync.com%3A6969","seeders":4,"leechers":0,"uploader":"ValidusVyto","files":-1,"time":1390573579,"description":"_______ Visit us at our Semi Public Bittorrent Community ________\n\n                        Find Us :)\n\nEscape Plan 2013 BRRip 720p x264 AAC - PRiSTiNE\n\n\n\nGenre: Action | Mystery | Thriller  &lt;a href=&quot;\nhttp://www.imdb.com/title/tt1211956/&quot; rel=&quot;nofollow&quot; target=&quot;_NEW&quot;&gt;\nhttp://www.imdb.com/title/tt1211956/&lt;/a&gt;\n\n\nFormat                         : MPEG-4\nFile size                      : 695 MiB\nDuration                       : 1h 55mn\nOverall bit rate               : 841 Kbps\n\nVideo\nFormat                         : AVC\nBit rate                       : 759 Kbps\nWidth                          : 1 280 pixels\nHeight                         : 528 pixels\nDisplay aspect ratio           : 2.40:1\nFrame rate mode                : Constant\nFrame rate                     : 23.976 fps\nBit depth                      : 10 bits\nStream size                    : 626 MiB (90%)\nWriting library                : x264 core 140 r2377\n\nAudio\nFormat                         : AAC\nChannel count                  : 2 channels\nChannel positions              : Front: L R\nSampling rate                  : 48.0 KHz\nStream size                    : 66.1 MiB (10%)\nLanguage                       : English\n\nSubtitle                       : Yes (English)\n\nSource                         : 720p.BluRay.DTS.x264-PHD\n &lt;a href=&quot;\nhttp://someimage.com/c4QCX6a&quot; rel=&quot;nofollow&quot; target=&quot;_NEW&quot;&gt;\nhttp://someimage.com/c4QCX6a&lt;/a&gt; &lt;a href=&quot;\nhttp://someimage.com/jvMilnB&quot; rel=&quot;nofollow&quot; target=&quot;_NEW&quot;&gt;\nhttp://someimage.com/jvMilnB&lt;/a&gt; &lt;a href=&quot;\nhttp://someimage.com/DDn3U0O&quot; rel=&quot;nofollow&quot; target=&quot;_NEW&quot;&gt;\nhttp://someimage.com/DDn3U0O&lt;/a&gt; &lt;a href=&quot;\nhttp://someimage.com/OZhfYUA&quot; rel=&quot;nofollow&quot; target=&quot;_NEW&quot;&gt;\nhttp://someimage.com/OZhfYUA&lt;/a&gt; &lt;a href=&quot;\nhttp://someimage.com/KRnNM3g&quot; rel=&quot;nofollow&quot; target=&quot;_NEW&quot;&gt;\nhttp://someimage.com/KRnNM3g&lt;/a&gt; &lt;a href=&quot;\nhttp://someimage.com/AZgJlSR&quot; rel=&quot;nofollow&quot; target=&quot;_NEW&quot;&gt;\nhttp://someimage.com/AZgJlSR&lt;/a&gt;\n\n----------------------------------------------------------------------------------------------------\n\n\nEncoded using revolutionary 10bit encoding, which enables us to provide you more crispier \nand sharper images at small sizes, just make sure you follow our instructions without a fault.\nRecommend to you to use latest version of VLC player. Install K-Lite Codec Pack or shark007 codecs\nin case of any kind of problem in playback (For non-VLC Media Player users). Alternatively, install\nCore AVC codecs, the fastest decoder that there is coupled with Community Center Codec Pack and play\non Windows Media Player Classic. Check sample to be sure.\nEnjoy!\n\nEncoder Notes:Looking For Early Access To Anything You Can Provide DVDScr, R5, DVDR, BluRay, Direct\nAudio, Music Releases and Seedboxes. We require dedicated servers, so as to do more \nand fast releases of movies.\nIf You Got anything to offer please contact us at &quot;&lt;a class=&quot;__cf_email__&quot; href=&quot;/cdn-cgi/l/email-protection&quot; data-cfemail=&quot;66161401260e13150e4805090b&quot;&gt;[email&amp;#160;protected]&lt;/a&gt;&lt;script cf-hash='f9e31' type=&quot;text/javascript&quot;&gt;\n/* &lt;![CDATA[ */!function(){try{var t=&quot;currentScript&quot;in document?document.currentScript:function(){for(var t=document.getElementsByTagName(&quot;script&quot;),e=t.length;e--;)if(t[e].getAttribute(&quot;cf-hash&quot;))return t[e]}();if(t&amp;&amp;t.previousSibling){var e,r,n,i,c=t.previousSibling,a=c.getAttribute(&quot;data-cfemail&quot;);if(a){for(e=&quot;&quot;,r=parseInt(a.substr(0,2),16),n=2;a.length-n;n+=2)i=parseInt(a.substr(n,2),16)^r,e+=String.fromCharCode(i);e=document.createTextNode(e),c.parentNode.replaceChild(e,c)}}}catch(u){}}();/* ]]&gt; */&lt;/script&gt;&quot;.\n\nHow to play 10bit video's on iPAD?\nInstall VLC for iOS from iTunes store, open iTunes on PC/MAC, go to apps tab, find VLC, added needed\nvideo files into VLC. Now you will be able to find added video on VLC for iOS app.\nNow enjoy 10bit video on your iPAD.","torrent":{"xt":"urn:btih:359a4e57b3e8d798c8375a05bed94c4516ded5e2","amp;dn":"Escape+Plan+2013+BRRip+720p+x264+AAC+-+PRiSTiNE+%5BP2PDL%5D","amp;tr":["udp%3A%2F%2Ftracker.openbittorrent.com%3A80","udp%3A%2F%2Fopen.demonii.com%3A1337","udp%3A%2F%2Ftracker.coppersurfer.tk%3A6969","udp%3A%2F%2Fexodus.desync.com%3A6969"],"infoHash":"359a4e57b3e8d798c8375a05bed94c4516ded5e2","infoHashBuffer":{"type":"Buffer","data":[53,154,78,87,179,232,215,152,200,55,90,5,190,217,76,69,22,222,213,226]},"announce":[],"urlList":[]}}